<svg width="48" height="48" viewBox="0 0 48 48" fill="none" xmlns="http://www.w3.org/2000/svg">
<path d="M37.8555 0H10.1445C4.54185 0 0 4.54185 0 10.1445V37.8555C0 43.4582 4.54185 48 10.1445 48H37.8555C43.4582 48 48 43.4582 48 37.8555V10.1445C48 4.54185 43.4582 0 37.8555 0Z" fill="url(#paint0_linear_1205_1150)"/>
<path d="M8.67981 8.12592C8.53017 8.14422 8.39331 8.21946 8.29758 8.33593C8.20185 8.4524 8.15461 8.60115 8.16563 8.75151V39.2542C8.16563 39.4099 8.2275 39.5593 8.33759 39.6693C8.44769 39.7794 8.59696 39.8412 8.75265 39.8412C8.90834 39.8412 9.05768 39.7794 9.16777 39.6693C9.27786 39.5593 9.33973 39.4099 9.33973 39.2542V8.75151C9.34581 8.66488 9.33257 8.57807 9.30102 8.49716C9.26947 8.41626 9.22036 8.34326 9.15724 8.28362C9.09412 8.22399 9.01861 8.17911 8.93605 8.1522C8.85349 8.12529 8.76595 8.11493 8.67981 8.12592ZM16.892 8.12592C16.7445 8.14893 16.6105 8.22541 16.5157 8.34077C16.4209 8.45613 16.3718 8.6023 16.3778 8.75151V13.4436C16.3778 14.4077 17.1727 15.2047 18.1389 15.2047H29.8712C30.8353 15.2047 31.6302 14.4077 31.6302 13.4436V8.75151C31.6264 8.59701 31.5633 8.44991 31.4541 8.34064C31.3448 8.23136 31.1977 8.16829 31.0432 8.16449C21.6955 8.16449 24.3693 8.12592 16.892 8.12592ZM39.1825 8.12592C39.0328 8.14422 38.896 8.21946 38.8002 8.33593C38.7045 8.4524 38.6573 8.60115 38.6683 8.75151V39.2542C38.6683 39.4099 38.7302 39.5593 38.8402 39.6693C38.9503 39.7794 39.0996 39.8412 39.2553 39.8412C39.411 39.8412 39.5603 39.7794 39.6704 39.6693C39.7805 39.5593 39.8424 39.4099 39.8424 39.2542V8.75151C39.8485 8.66488 39.8352 8.57807 39.8037 8.49716C39.7721 8.41626 39.723 8.34326 39.6599 8.28362C39.5968 8.22399 39.5213 8.17911 39.4387 8.1522C39.3561 8.12529 39.2686 8.11493 39.1825 8.12592ZM10.9166 9.33852C10.7959 9.38064 10.6917 9.46004 10.6189 9.56514C10.5461 9.67024 10.5086 9.79565 10.5117 9.92344V13.4436C10.5117 13.7499 10.7902 14.0306 11.0987 14.0306H14.6188C14.9252 14.0306 15.2059 13.7521 15.2059 13.4436V9.92344C15.1995 9.76999 15.1355 9.62464 15.0267 9.51623C14.9179 9.40783 14.7723 9.34432 14.6188 9.33852H11.0987C11.0384 9.32795 10.9768 9.32795 10.9166 9.33852ZM33.2071 9.33852C33.0868 9.381 32.983 9.46046 32.9107 9.56553C32.8383 9.6706 32.8011 9.79591 32.8043 9.92344V13.4436C32.8043 13.7499 33.0828 14.0306 33.3892 14.0306H36.9093C37.2156 14.0306 37.4964 13.7521 37.4964 13.4436V9.92344C37.49 9.76999 37.426 9.62464 37.3172 9.51623C37.2084 9.40783 37.0627 9.34432 36.9093 9.33852H33.3892C33.329 9.32795 33.2673 9.32795 33.2071 9.33852ZM10.9166 15.2047C10.7959 15.2469 10.6917 15.3261 10.6189 15.4312C10.5461 15.5363 10.5086 15.6619 10.5117 15.7897V19.3098C10.5117 19.6162 10.7902 19.8968 11.0987 19.8968H14.6188C14.9252 19.8968 15.2059 19.6183 15.2059 19.3098V15.7897C15.1995 15.6362 15.1355 15.4907 15.0267 15.3823C14.9179 15.2739 14.7723 15.2105 14.6188 15.2047H11.0987C11.0384 15.1942 10.9768 15.1942 10.9166 15.2047ZM33.2071 15.2047C33.0868 15.2472 32.983 15.3267 32.9107 15.4318C32.8383 15.5368 32.8011 15.6621 32.8043 15.7897V19.3098C32.8043 19.6162 33.0828 19.8968 33.3892 19.8968H36.9093C37.2156 19.8968 37.4964 19.6183 37.4964 19.3098V15.7897C37.49 15.6362 37.426 15.4907 37.3172 15.3823C37.2084 15.2739 37.0627 15.2105 36.9093 15.2047H33.3892C33.329 15.1942 33.2673 15.1942 33.2071 15.2047ZM19.3109 16.3767C17.6976 16.3767 16.3778 17.6943 16.3778 19.3119V27.5218C16.3778 29.1373 17.6976 30.457 19.313 30.457H28.6971C30.3126 30.457 31.6302 29.1373 31.6302 27.5218V19.3098C31.6302 17.6944 30.3126 16.3767 28.6971 16.3767H19.313H19.3109ZM10.9166 21.0687C10.7955 21.111 10.691 21.1906 10.6182 21.2961C10.5454 21.4017 10.5081 21.5276 10.5117 21.6558V25.1759C10.5117 25.4823 10.7902 25.7629 11.0987 25.7629H14.6188C14.9252 25.7629 15.2059 25.4844 15.2059 25.1759V21.6558C15.2001 21.5019 15.1363 21.356 15.0275 21.2471C14.9186 21.1383 14.7726 21.0746 14.6188 21.0687H11.0987C11.0384 21.0582 10.9768 21.0582 10.9166 21.0687ZM33.2071 21.0687C33.0864 21.1113 32.9824 21.1912 32.91 21.2967C32.8376 21.4022 32.8006 21.5279 32.8043 21.6558V25.1759C32.8043 25.4823 33.0828 25.7629 33.3892 25.7629H36.9093C37.2156 25.7629 37.4964 25.4844 37.4964 25.1759V21.6558C37.4905 21.5019 37.4268 21.356 37.3179 21.2471C37.2091 21.1383 37.0631 21.0746 36.9093 21.0687H33.3892C33.329 21.0582 33.2673 21.0582 33.2071 21.0687ZM10.9166 26.9371C10.7955 26.9793 10.691 27.0589 10.6182 27.1645C10.5454 27.27 10.5081 27.3959 10.5117 27.5241V31.0442C10.5117 31.3506 10.7902 31.6312 11.0987 31.6312H14.6188C14.9252 31.6312 15.2059 31.3527 15.2059 31.0442V27.5241C15.2001 27.3702 15.1363 27.2243 15.0275 27.1154C14.9186 27.0066 14.7726 26.9429 14.6188 26.9371H11.0987C11.0384 26.9265 10.9768 26.9265 10.9166 26.9371ZM33.2071 26.9371C33.0864 26.9796 32.9824 27.0593 32.91 27.1649C32.8376 27.2704 32.8006 27.3962 32.8043 27.5241V31.0442C32.8043 31.3506 33.0828 31.6312 33.3892 31.6312H36.9093C37.2156 31.6312 37.4964 31.3527 37.4964 31.0442V27.5241C37.4905 27.3702 37.4268 27.2243 37.3179 27.1154C37.2091 27.0066 37.0631 26.9429 36.9093 26.9371H33.3892C33.329 26.9265 33.2673 26.9265 33.2071 26.9371ZM18.1389 31.6291C17.6725 31.6314 17.2259 31.8176 16.8961 32.1473C16.5663 32.4771 16.3801 32.9238 16.3778 33.3902V39.2564C16.3735 39.567 16.6563 39.8797 16.9648 39.8797H31.0432C31.3538 39.8797 31.6345 39.567 31.6302 39.2585V33.3858C31.6274 32.9202 31.4412 32.4745 31.1119 32.1453C30.7826 31.816 30.3368 31.6297 29.8712 31.6269H18.1389V31.6291ZM10.9166 32.8031C10.7955 32.8454 10.691 32.925 10.6182 33.0305C10.5454 33.1361 10.5081 33.262 10.5117 33.3902V36.9103C10.5117 37.2167 10.7902 37.4973 11.0987 37.4973H14.6188C14.9252 37.4973 15.2059 37.2188 15.2059 36.9103V33.3902C15.2001 33.2363 15.1363 33.0904 15.0275 32.9815C14.9186 32.8727 14.7726 32.809 14.6188 32.8031H11.0987C11.0384 32.7926 10.9768 32.7926 10.9166 32.8031ZM33.2071 32.8031C33.0864 32.8457 32.9824 32.9256 32.91 33.0311C32.8376 33.1366 32.8006 33.2623 32.8043 33.3902V36.9103C32.8043 37.2167 33.0828 37.4973 33.3892 37.4973H36.9093C37.2156 37.4973 37.4964 37.2188 37.4964 36.9103V33.3902C37.4905 33.2363 37.4268 33.0904 37.3179 32.9815C37.2091 32.8727 37.0631 32.809 36.9093 32.8031H33.3892C33.329 32.7926 33.2673 32.7926 33.2071 32.8031Z" fill="white"/>
<defs>
<linearGradient id="paint0_linear_1205_1150" x1="8.28256" y1="8.75096" x2="115.015" y2="112.375" gradientUnits="userSpaceOnUse">
<stop stop-color="#C637E6"/>
<stop offset="0.394" stop-color="#5B0D6D"/>
</linearGradient>
</defs>
</svg>
